<?xml version="1.0" encoding="UTF-8"?><svg id="Layer_2" xmlns="http://www.w3.org/2000/svg" viewBox="0 0 458.86 242.66"><defs><style>.cls-1{fill:#fafeff;}</style></defs><g id="visual"><path class="cls-1" d="M373.77,28.65c23.8,21.69,12.8,55.11,27.6,83.1,14.7,27.99,55.3,50.6,57.4,72.8,2.1,22.25-34.3,44.04-78.4,49.63-44,5.54-95.8-5.13-150.4-3.08-54.7,2.1-112.3,16.92-145.3,9.48-32.9-7.38-41.3-37.07-55.9-64.6C14.17,148.41-6.83,122.98,2.17,100.52c9-22.4,47.8-41.83,91.3-60.24C136.87,21.93,184.87,4.5,238.17,.76c53.3-3.69,111.9,6.2,135.6,27.89"/></g></svg>