<svg id="visual" viewBox="0 0 900 600" width="900" height="600" xmlns="http://www.w3.org/2000/svg" xmlns:xlink="http://www.w3.org/1999/xlink" version="1.1"><script>(
</script><g transform="translate(453.44098902532346 338.21901324904576)"><path d="M140.9 -219C164.7 -176.7 153.7 -111.5 168.5 -56.9C183.2 -2.3 223.8 41.8 225.9 85.1C228 128.5 191.6 171 147.5 181.9C103.5 192.7 51.7 171.9 -2.9 175.9C-57.6 180 -115.2 208.9 -148.2 194.4C-181.1 180 -189.5 122.1 -204.1 68.4C-218.7 14.6 -239.7 -35 -230.7 -78.8C-221.7 -122.5 -182.9 -160.4 -139.4 -196.3C-96 -232.1 -48 -266.1 5.3 -273.4C58.6 -280.6 117.2 -261.3 140.9 -219" fill="#FAFEFF"/></g></svg>